<?xml version="1.0" encoding="iso-8859-1"?>
<!-- Generator: Adobe Illustrator 16.0.0, SVG Export Plug-In . SVG Version: 6.00 Build 0)  -->
<!DOCTYPE svg PUBLIC "-//W3C//DTD SVG 1.1//EN" "http://www.w3.org/Graphics/SVG/1.1/DTD/svg11.dtd">
<svg version="1.1" id="Capa_1" xmlns="http://www.w3.org/2000/svg" xmlns:xlink="http://www.w3.org/1999/xlink" x="0px" y="0px"
	 width="30.696px" height="30.696px" viewBox="0 0 30.696 30.696" style="enable-background:new 0 0 30.696 30.696;"
	 xml:space="preserve">
<g>
	<path d="M28.278,2.705l-0.462-0.48l-0.465,0.479c-0.39,0.401-0.771,0.792-1.146,1.172c-0.919-0.826-3.063-2.422-5.822-2.31
		l-0.358,0.015l-0.177,0.313C16.646,7.556,4.765,15.648,3.376,16.581c-0.532,0.189-1.12,0.558-1.746,1.206
		c-2.257,2.343-1.889,5.903-0.59,8.221c1.116,1.993,2.847,3.129,4.673,3.129c0.319,0,0.642-0.034,0.965-0.105
		c0.896-0.197,1.586-0.646,2.114-1.258c0.884-0.906,5.29-5.388,9.507-9.1c0.436,0.517,1.611,2.004,2.09,3.567
		c0.591,1.939,0.85,4.909,0.85,4.909l0.967-2.102l1.398,0.441c0,0-0.205-2.709-1.013-4.27c-0.806-1.561-1.936-3.171-1.936-3.171
		s2.086,1.051,3.278,2.363c1.193,1.314,2.28,3.978,2.28,3.978l0.793-1.55l2.289-0.539c0,0-3.545-3.217-4.396-3.822
		c-0.756-0.539-2.845-1.89-3.42-2.477c3.328-2.656,6.388-4.736,6.652-4.886c1.466-0.829,2.339-1.943,2.525-3.218
		C30.888,6.33,30.088,4.581,28.278,2.705z M8.866,18.348c0.418,2.378,0.789,8.707-2.467,9.425c-1.899,0.419-3.433-0.962-4.235-2.395
		c-1.071-1.915-1.405-4.826,0.396-6.695c0.901-0.938,1.722-1.203,2.441-0.795c0.475,0.27,0.871,0.773,1.17,1.359
		c-0.468,0.454-1.455,1.373-3.274,2.92l-0.288,0.246l0.073,0.372c0.48,2.396,1.791,2.698,2.332,2.718
		c1.262,0.025,2.461-1.129,2.954-2.922c0.42-1.525-0.39-4.71-2.329-5.813c-0.044-0.026-0.091-0.05-0.141-0.076
		c1.684-1.171,4.497-3.203,7.324-5.548c1.148,0.216,2.652,0.704,3.595,1.796c-5.007,4.09-7.034,4.662-7.06,4.667L8.76,17.743
		L8.866,18.348z M6.654,20.568c0.152,0.644,0.184,1.257,0.07,1.669c-0.355,1.292-1.105,1.978-1.643,1.978
		c-0.008,0-0.015,0-0.022-0.002c-0.43-0.015-0.802-0.5-1.028-1.318C5.287,21.82,6.121,21.067,6.654,20.568z M10.184,24.545
		c0.432-2.291,0.182-4.8,0.034-5.885c0.942-0.396,3.099-1.526,6.893-4.615c0.576,1.168,0.831,2.305,0.94,3.135
		C15.213,19.637,12.218,22.529,10.184,24.545z M15.875,8.469c2.024-1.887,3.821-3.838,4.903-5.618
		c2.076,0.05,3.752,1.276,4.513,1.942c-2.242,2.242-4.212,4.096-5.931,5.627C18.242,9.036,16.93,8.576,15.875,8.469z M29.383,7.714
		c-0.129,0.879-0.762,1.647-1.886,2.284c-0.407,0.23-3.188,2.142-6.24,4.54c-0.008-0.595-0.18-1.45-1.158-3.043
		c2.167-1.926,4.718-4.35,7.704-7.405C29.002,5.462,29.533,6.68,29.383,7.714z"/>
</g>
<g>
</g>
<g>
</g>
<g>
</g>
<g>
</g>
<g>
</g>
<g>
</g>
<g>
</g>
<g>
</g>
<g>
</g>
<g>
</g>
<g>
</g>
<g>
</g>
<g>
</g>
<g>
</g>
<g>
</g>
</svg>
